<svg width="18" height="23" viewBox="0 0 18 23" fill="none" xmlns="http://www.w3.org/2000/svg">
<path fill-rule="evenodd" clip-rule="evenodd" d="M8.69157 0.190002C7.4318 0.190002 6.22361 0.690448 5.33282 1.58125C4.44202 2.47204 3.94157 3.68022 3.94157 4.94V5.5H0.781574L0.0115738 17.1C-0.0350324 17.7838 0.0594434 18.4699 0.289133 19.1156C0.518823 19.7614 0.878821 20.353 1.34677 20.8538C1.81472 21.3546 2.38063 21.7538 3.00936 22.0266C3.63808 22.2995 4.31619 22.4402 5.00157 22.44H12.3816C13.0661 22.4401 13.7433 22.2997 14.3713 22.0274C14.9993 21.7552 15.5647 21.3569 16.0325 20.8572C16.5003 20.3575 16.8605 19.7671 17.0909 19.1226C17.3212 18.478 17.4167 17.793 17.3716 17.11L16.6016 5.51H13.4416V4.94C13.4416 4.31622 13.3187 3.69855 13.08 3.12226C12.8413 2.54596 12.4914 2.02232 12.0503 1.58125C11.6093 1.14017 11.0856 0.790285 10.5093 0.551575C9.93302 0.312865 9.31535 0.190002 8.69157 0.190002ZM12.4416 4.94V5.5H4.94157V4.94C4.94157 3.94544 5.33666 2.99161 6.03992 2.28835C6.74318 1.58509 7.69701 1.19 8.69157 1.19C9.68614 1.19 10.64 1.58509 11.3432 2.28835C12.0465 2.99161 12.4416 3.94544 12.4416 4.94ZM12.4416 6.5H4.94157V7.06C4.94157 8.05456 5.33666 9.00839 6.03992 9.71165C6.74318 10.4149 7.69701 10.81 8.69157 10.81C9.68614 10.81 10.64 10.4149 11.3432 9.71165C12.0465 9.00839 12.4416 8.05456 12.4416 7.06V6.5ZM3.94157 7.06V6.5H1.72157L1.00157 17.17C0.964529 17.7176 1.04055 18.2669 1.22492 18.7838C1.40928 19.3007 1.69804 19.7741 2.07324 20.1746C2.44843 20.5752 2.90202 20.8942 3.40581 21.1119C3.90959 21.3296 4.45277 21.4413 5.00157 21.44H12.3816C12.9295 21.4399 13.4716 21.3272 13.9742 21.1089C14.4768 20.8906 14.9292 20.5714 15.3033 20.171C15.6774 19.7706 15.9653 19.2976 16.1491 18.7814C16.3328 18.2652 16.4086 17.7167 16.3716 17.17L15.6616 6.5H13.4416V7.06C13.4416 8.31978 12.9411 9.52796 12.0503 10.4188C11.1595 11.3096 9.95135 11.81 8.69157 11.81C7.4318 11.81 6.22361 11.3096 5.33282 10.4188C4.44202 9.52796 3.94157 8.31978 3.94157 7.06Z" fill="black"/>
</svg>
