<svg width="19" height="20" viewBox="0 0 19 20" fill="none" xmlns="http://www.w3.org/2000/svg">
<path fill-rule="evenodd" clip-rule="evenodd" d="M12.0108 13.2179C10.7372 14.3278 9.07208 15 7.25 15C3.24594 15 0 11.7541 0 7.75C0 3.74594 3.24594 0.5 7.25 0.5C11.2541 0.5 14.5 3.74594 14.5 7.75C14.5 9.57208 13.8278 11.2372 12.7179 12.5108L18.8536 18.6464L18.1464 19.3536L12.0108 13.2179ZM13.5 7.75C13.5 11.2018 10.7018 14 7.25 14C3.79822 14 1 11.2018 1 7.75C1 4.29822 3.79822 1.5 7.25 1.5C10.7018 1.5 13.5 4.29822 13.5 7.75Z" fill="black"/>
</svg>
