<svg width="17" height="19" viewBox="0 0 17 19" fill="none" xmlns="http://www.w3.org/2000/svg">
<path d="M5.5 4.5C5.5 3.70435 5.81607 2.94129 6.37868 2.37868C6.94129 1.81607 7.70435 1.5 8.5 1.5C9.29565 1.5 10.0587 1.81607 10.6213 2.37868C11.1839 2.94129 11.5 3.70435 11.5 4.5C11.5 5.29565 11.1839 6.05871 10.6213 6.62132C10.0587 7.18393 9.29565 7.5 8.5 7.5C7.70435 7.5 6.94129 7.18393 6.37868 6.62132C5.81607 6.05871 5.5 5.29565 5.5 4.5ZM8.5 0.5C7.43913 0.5 6.42172 0.921427 5.67157 1.67157C4.92143 2.42172 4.5 3.43913 4.5 4.5C4.5 5.56087 4.92143 6.57828 5.67157 7.32843C6.42172 8.07857 7.43913 8.5 8.5 8.5C9.56087 8.5 10.5783 8.07857 11.3284 7.32843C12.0786 6.57828 12.5 5.56087 12.5 4.5C12.5 3.43913 12.0786 2.42172 11.3284 1.67157C10.5783 0.921427 9.56087 0.5 8.5 0.5ZM14.08 12.65C15.2 13.47 15.91 14.89 15.99 17.5H1.01C1.09 14.9 1.8 13.47 2.91 12.65C4.16 11.75 6 11.5 8.5 11.5C11 11.5 12.85 11.76 14.08 12.65ZM8.5 10.5C6 10.5 3.85 10.74 2.33 11.85C0.77 12.98 0 14.93 0 18V18.5H17V18C17 14.93 16.23 12.98 14.67 11.85C13.15 10.75 11 10.5 8.5 10.5Z" fill="black"/>
</svg>
