<svg width="12" height="13" viewBox="0 0 12 13" fill="none" xmlns="http://www.w3.org/2000/svg">
<g clip-path="url(#clip0_1601_3109)">
<path fill-rule="evenodd" clip-rule="evenodd" d="M2.80029 5.26387C2.79988 5.09819 2.93385 4.96354 3.09954 4.96312L6.41971 4.95479C6.58543 4.95438 6.72007 5.08835 6.72049 5.25404C6.72091 5.41972 6.58693 5.55437 6.42121 5.55479L3.10104 5.56312C2.93536 5.56354 2.80071 5.42956 2.80029 5.26387Z" fill="black"/>
<path fill-rule="evenodd" clip-rule="evenodd" d="M4.75542 3.29878C4.92111 3.29837 5.05576 3.43234 5.05618 3.59803L5.06451 6.9182C5.06492 7.08392 4.93095 7.21857 4.76526 7.21899C4.59957 7.21941 4.46492 7.08543 4.46451 6.91971L4.45618 3.59953C4.45576 3.43385 4.58974 3.2992 4.75542 3.29878Z" fill="black"/>
<path fill-rule="evenodd" clip-rule="evenodd" d="M7.69944 2.31807C6.0753 0.693977 3.44216 0.693977 1.81807 2.31807C0.193977 3.94216 0.193977 6.57536 1.81807 8.19944C3.44216 9.82352 6.0753 9.82352 7.69944 8.19944C9.32352 6.57536 9.32352 3.94216 7.69944 2.31807ZM1.39381 1.89381C3.25221 0.035398 6.26526 0.035398 8.1237 1.89381C9.96606 3.73617 9.98196 6.71336 8.1714 8.57528L10.9484 11.3523C11.0656 11.4694 11.0656 11.6594 10.9484 11.7766C10.8313 11.8937 10.6413 11.8937 10.5241 11.7766L7.72668 8.97908C5.8583 10.4734 3.12503 10.3549 1.39381 8.6237C-0.464602 6.76526 -0.464602 3.75221 1.39381 1.89381Z" fill="black"/>
</g>
<defs>
<clipPath id="clip0_1601_3109">
<rect width="12" height="12" fill="white" transform="translate(0 0.5)"/>
</clipPath>
</defs>
</svg>
